<?xml version="1.0" encoding="UTF-8" standalone="no"?>
<!-- Created with Inkscape (http://www.inkscape.org/) -->

<svg
   xmlns:sketch="http://www.bohemiancoding.com/sketch/ns"
   xmlns:dc="http://purl.org/dc/elements/1.1/"
   xmlns:cc="http://creativecommons.org/ns#"
   xmlns:rdf="http://www.w3.org/1999/02/22-rdf-syntax-ns#"
   xmlns:svg="http://www.w3.org/2000/svg"
   xmlns="http://www.w3.org/2000/svg"
   xmlns:sodipodi="http://sodipodi.sourceforge.net/DTD/sodipodi-0.dtd"
   xmlns:inkscape="http://www.inkscape.org/namespaces/inkscape"
   width="210mm"
   height="297mm"
   viewBox="0 0 744.09448819 1052.3622047"
   id="svg2"
   version="1.1"
   inkscape:version="0.91 r13725"
   sodipodi:docname="compose-melb-logo.svg">
  <defs
     id="defs4">
    <inkscape:path-effect
       effect="spiro"
       id="path-effect4591"
       is_visible="true" />
    <inkscape:path-effect
       effect="spiro"
       id="path-effect4579"
       is_visible="true" />
    <inkscape:path-effect
       effect="spiro"
       id="path-effect4575"
       is_visible="true" />
    <inkscape:path-effect
       effect="spiro"
       id="path-effect4567"
       is_visible="true" />
    <inkscape:path-effect
       effect="spiro"
       id="path-effect4555"
       is_visible="true" />
    <inkscape:path-effect
       effect="spiro"
       id="path-effect4539"
       is_visible="true" />
  </defs>
  <sodipodi:namedview
     id="base"
     pagecolor="#ffffff"
     bordercolor="#666666"
     borderopacity="1.0"
     inkscape:pageopacity="0.0"
     inkscape:pageshadow="2"
     inkscape:zoom="0.7"
     inkscape:cx="184.684"
     inkscape:cy="582.48371"
     inkscape:document-units="px"
     inkscape:current-layer="layer1"
     showgrid="false"
     inkscape:window-width="1920"
     inkscape:window-height="1080"
     inkscape:window-x="0"
     inkscape:window-y="0"
     inkscape:window-maximized="0" />
  <metadata
     id="metadata7">
    <rdf:RDF>
      <cc:Work
         rdf:about="">
        <dc:format>image/svg+xml</dc:format>
        <dc:type
           rdf:resource="http://purl.org/dc/dcmitype/StillImage" />
        <dc:title></dc:title>
      </cc:Work>
    </rdf:RDF>
  </metadata>
  <g
     inkscape:label="Layer 1"
     inkscape:groupmode="layer"
     id="layer1">
    <path
       style="fill:#2b0000;fill-opacity:1;stroke:#000000;stroke-width:0;stroke-miterlimit:4;stroke-dasharray:none;stroke-opacity:1"
       id="path4154"
       d="m 100.51233,539.99918 c 0.7356,-2.6773 1.7961,-5.25533 2.7248,-7.87045 1.603,-4.47243 3.2715,-8.919 5.0669,-13.3178 2.3916,-5.77913 4.9359,-11.48573 7.8,-17.04623 3.5736,-6.59993 7.9984,-12.67287 12.8144,-18.4096 10.2555,-11.19904 20.7015,-22.33753 32.809,-31.54193 6.1419,-4.4966 12.7941,-8.1859 19.6387,-11.4827 6.9814,-3.24435 14.4991,-4.7299 22.0961,-5.57778 7.1278,-0.70148 14.2515,-0.10489 21.2833,1.09729 6.3668,1.16131 12.4506,3.36052 18.3616,5.94224 5.7103,2.48771 10.9505,5.84141 16.1569,9.22184 4.9785,3.3416 10.0051,6.60492 15.2078,9.5871 5.4144,3.19725 11.0283,6.01303 16.8238,8.44504 7.5343,2.98328 15.4412,4.80457 23.4167,6.113 8.9856,1.39385 18.058,0.89637 27.0295,-0.25343 9.0071,-1.31216 17.5684,-4.33124 25.8053,-8.10618 8.3876,-4.06359 15.9959,-9.48739 23.2714,-15.26464 7.3794,-5.82705 14.1677,-12.33008 20.9308,-18.8463 1.0849,-1.08368 4.3405,-4.33407 3.2549,-3.25103 -43.4377,43.33512 43.7209,-43.67174 0.3229,-0.351 11.8609,-11.87756 23.4956,-24.01246 36.2837,-34.90486 7.395,-6.26146 15.2897,-11.8865 23.37665,-17.20979 7.93677,-5.11197 16.38574,-9.3259 25.06855,-12.99817 8.84708,-3.67366 18.05926,-6.33708 27.35853,-8.57934 8.26955,-1.94969 16.712,-2.69061 25.1864,-2.41079 7.60034,0.20171 15.07463,1.52917 22.42414,3.39275 6.53475,1.5357 12.81807,3.8582 18.85631,6.76535 5.13687,2.55425 9.75566,5.94077 13.91843,9.86354 3.57068,3.49815 6.24481,7.73142 8.49982,12.15896 2.04392,4.2575 3.49744,8.74745 4.51606,13.34967 0.96483,4.59331 1.07193,9.28843 0.92571,13.96059 -0.194,4.78014 -0.99097,9.50238 -1.92945,14.18412 -1.13244,5.07995 -2.69824,10.04668 -4.30324,14.9928 -1.54816,5.09948 -3.3927,10.09572 -5.37124,15.04126 -0.34606,0.82143 -0.69211,1.64286 -1.03817,2.46429 0,0 -17.7858,13.97285 -17.7858,13.97285 l 0,0 c 0.35999,-0.80536 0.71999,-1.61071 1.07999,-2.41607 1.97513,-4.91616 3.96122,-9.83342 5.46375,-14.92098 1.59377,-4.89708 3.20577,-9.79073 4.43879,-14.79505 1.02119,-4.57624 1.8481,-9.21013 2.15273,-13.89486 0.2887,-4.51308 0.25244,-9.06605 -0.55833,-13.52935 -0.84384,-4.46207 -2.21045,-8.79376 -4.11408,-12.9233 -2.05225,-4.23538 -4.57063,-8.2672 -7.92816,-11.60194 -3.98454,-3.77213 -8.4389,-6.98801 -13.38078,-9.40622 -5.92785,-2.80121 -12.09699,-5.00313 -18.49176,-6.48959 -7.2254,-1.75551 -14.56874,-2.97063 -22.02322,-3.09571 -8.32183,-0.0982 -16.60172,0.73851 -24.69543,2.74951 -9.20691,2.32228 -18.33086,5.02809 -27.06106,8.80381 -8.57179,3.78305 -16.93049,8.05161 -24.74904,13.24087 -8.0162,5.38258 -15.8395,11.06184 -23.1544,17.37692 -6.5376,5.68686 -33.1462,31.34349 -4.8082,3.66057 -6.3004,6.3025 -12.5949,12.61089 -18.9012,18.90751 -1.0659,1.06434 -4.2769,4.24413 -3.2155,3.17531 4.1469,-4.17558 8.3034,-8.3416 12.4718,-12.49568 1.0633,-1.05974 -2.097,2.1491 -3.1567,3.21254 -17.6331,17.69547 -12.93,13.05192 -22.1579,22.12494 -6.7972,6.50402 -13.6721,12.93898 -21.1165,18.70855 -7.4337,5.68617 -15.1535,11.06452 -23.7126,14.94219 -8.433,3.64064 -17.1753,6.52903 -26.3292,7.68583 -9.1528,1.02331 -18.3935,1.36132 -27.5228,-0.16129 -8.1267,-1.41708 -16.1961,-3.30319 -23.8695,-6.39186 -5.866,-2.49874 -11.5584,-5.36474 -17.0511,-8.60831 -5.2211,-3.02705 -10.2765,-6.31745 -15.2923,-9.67228 -5.1021,-3.31554 -10.2597,-6.5687 -15.8745,-8.96692 -5.7765,-2.46482 -11.7217,-4.54574 -17.9382,-5.58458 -6.8761,-1.07332 -13.8342,-1.54151 -20.7728,-0.70845 -7.433,0.99561 -14.7522,2.66609 -21.5048,6.04971 -6.7293,3.39456 -13.2849,7.14649 -19.2726,11.7523 -2.5857,2.04785 -3.4755,2.69004 -5.9409,4.89448 -0.9584,0.85693 -3.7182,3.55112 -2.8195,2.63173 24.7364,-25.30678 12.9354,-13.00805 7.514,-7.39279 -4.9021,5.58071 -9.3676,11.51762 -13.0742,17.97031 -2.9424,5.47187 -5.5175,11.11347 -7.8888,16.8556 -1.8321,4.33393 -3.4831,8.73559 -5.0662,13.16592 -0.9078,2.55416 -1.7743,5.12397 -2.7853,7.63776 0,0 -17.6947,14.3782 -17.6947,14.3782 z"
       inkscape:connector-curvature="0"
       inkscape:export-xdpi="94.909103"
       inkscape:export-ydpi="94.909103" />
    <path
       style="fill:#0000ff;fill-opacity:1;stroke:#000000;stroke-width:0;stroke-miterlimit:4;stroke-dasharray:none;stroke-opacity:1"
       id="path4160"
       d="m 404.18773,701.19427 c -2.6173,1.07865 -4.8341,2.84512 -6.8615,4.78368 -5.9515,6.50935 0.5696,-0.6612 13.5721,-13.41303 0.4087,-0.4008 -0.7507,0.86481 -1.1059,1.31374 -1.1161,1.411 -2.0434,2.91882 -2.9565,4.46447 -1.939,3.35052 -3.2609,6.96501 -4.1953,10.7073 -0.9882,3.97144 -1.1067,8.02454 -0.9372,12.0886 0.2277,4.41215 1.5622,8.58456 3.2663,12.62076 1.747,4.18735 4.7793,7.43262 8.119,10.39785 3.7044,3.00793 8.0905,4.58221 12.7111,5.48669 4.3633,0.55175 8.6112,-0.21391 12.7039,-1.69429 3.562,-1.3954 6.4785,-3.78304 9.1151,-6.4918 -27.6223,27.53947 -13.1534,15.23472 -9.4973,6.82741 1.3074,-3.40247 1.1577,-7.0281 0.7677,-10.5839 -0.6235,-4.00008 -2.0164,-7.8093 -3.6348,-11.50029 -1.7469,-4.28859 -4.7983,-7.64929 -8.0328,-10.8596 -3.8058,-3.58387 -8.344,-6.19549 -12.968,-8.56072 -4.7129,-2.39203 -9.7675,-3.97411 -14.9266,-5.05106 -5.1699,-1.02896 -10.3512,-0.25971 -15.4039,0.97494 -2.8888,0.74105 -5.6652,1.81336 -8.4309,2.91164 0,0 14.0364,-17.69583 14.0364,-17.69583 l 0,0 c 2.8557,-1.03509 5.7185,-2.06032 8.6929,-2.7125 5.3579,-1.06084 10.7851,-1.63772 16.1732,-0.35904 5.3018,1.24521 10.4966,2.94141 15.344,5.45956 4.8084,2.50506 9.5128,5.27798 13.4833,9.01745 3.4297,3.39091 6.6911,6.95158 8.6294,11.44369 1.7628,3.84612 3.2566,7.81402 4.0869,11.97657 0.5854,3.78262 0.8885,7.67366 -0.039,11.43088 -3.5198,10.85268 -14.1733,17.91622 -21.6661,25.60007 -2.932,2.56321 -6.1474,4.72434 -9.9171,5.86003 -4.4433,1.23489 -9.0035,1.76724 -13.5833,0.9048 -4.9305,-1.16438 -9.6153,-3.01131 -13.5648,-6.27853 -3.5669,-3.18481 -6.8467,-6.66463 -8.8082,-11.10057 -1.8698,-4.21626 -3.3918,-8.57618 -3.7983,-13.20658 -0.3216,-4.19798 -0.3676,-8.41141 0.5163,-12.55358 0.7536,-3.90274 1.9253,-7.6822 3.7793,-11.21566 5.1307,-9.85076 13.3949,-17.28452 21.9456,-24.48819 2.2906,-1.81132 4.7472,-3.36804 7.4812,-4.43072 0,0 -14.0961,17.92576 -14.0961,17.92576 z"
       inkscape:connector-curvature="0"
       inkscape:export-xdpi="94.909103"
       inkscape:export-ydpi="94.909103" />
    <path
       style="fill:#2b0000;fill-opacity:1;stroke:#000000;stroke-width:0;stroke-miterlimit:4;stroke-dasharray:none;stroke-opacity:1"
       id="path4162"
       d="m 95.079128,655.49237 c -1.111,2.39449 -1.7936,4.95257 -2.4295,7.50507 -0.8466,3.54915 -1.395,7.15853 -1.8961,10.7696 -0.6435,4.17896 -0.8512,8.39821 -0.8591,12.62085 -0.017,4.6197 0.6809,9.18966 1.7067,13.68109 0.988,4.68339 2.7269,9.11304 4.8333,13.39192 2.0695,4.14972 4.981602,7.72136 8.231502,10.98989 3.344,3.24153 7.3565,5.63794 11.4744,7.75254 4.3818,2.26946 9.1657,3.44022 14.0334,4.03448 5.0259,0.39622 10.0443,-0.2441 15.0354,-0.76559 5.2645,-0.72588 10.5176,-1.50715 15.7538,-2.41364 5.7046,-0.74598 11.2003,-2.40449 16.6804,-4.08558 5.7791,-1.88987 11.4081,-4.19675 17.1095,-6.30218 6.15,-2.25063 12.403,-4.16371 18.7156,-5.89802 6.5885,-1.77566 13.2727,-3.1688 19.9789,-4.41573 6.7051,-1.25792 13.4462,-2.25004 20.237,-2.89006 7.1185,-0.66904 14.2721,-0.89241 21.4192,-0.83352 6.7877,0.23382 13.5586,0.75475 20.2861,1.68536 5.8391,0.77828 11.5884,2.08821 17.2679,3.6318 5.5206,1.68685 10.9464,3.68762 16.2952,5.85565 5.1086,2.21717 10.4112,3.91795 15.643,5.8055 5.0073,1.87227 10.1185,3.4336 15.2731,4.8409 3.4357,0.93215 6.9029,1.71801 10.4083,2.33162 0,0 -14.9994,16.92604 -14.9994,16.92604 l 0,0 c -3.5486,-0.68885 -7.0709,-1.4949 -10.5552,-2.46246 -5.1946,-1.45267 -10.3415,-3.06606 -15.3952,-4.9574 -5.2636,-1.87508 -10.5608,-3.66178 -15.6983,-5.87212 -5.2835,-2.10568 -10.6281,-4.08978 -16.0955,-5.66725 -5.6079,-1.46764 -11.2728,-2.73631 -17.0301,-3.46439 -6.6497,-0.85611 -13.3378,-1.38104 -20.0429,-1.51936 -7.0947,0.0145 -14.1921,0.25112 -21.2521,0.99347 -6.736,0.70733 -13.4264,1.74828 -20.0804,3.01438 -6.6591,1.29441 -13.3003,2.70622 -19.835,4.53994 -6.2711,1.77793 -12.4752,3.76267 -18.5849,6.03958 -5.7134,2.14673 -11.3855,4.42271 -17.2228,6.21966 -5.5538,1.66693 -11.1607,3.12767 -16.9154,3.92637 -5.274,0.8923 -10.5682,1.66896 -15.8772,2.3236 -5.1311,0.51558 -10.3069,1.05246 -15.4555,0.41814 -5.0735,-0.79407 -10.0428,-2.12862 -14.6049,-4.55215 -4.301302,-2.26312 -8.486802,-4.81661 -11.988202,-8.22821 -3.4145,-3.43908 -6.4953,-7.18319 -8.7237,-11.51757 -2.228,-4.39282 -4.1269,-8.93617 -5.1868,-13.76756 -1.1569,-4.59853 -1.9669,-9.30025 -2.0491,-14.05297 -0.1143,-4.29323 0.037,-8.59912 0.6303,-12.85683 0.464,-3.65616 0.9714,-7.3101 1.7301,-10.91883 0.5713,-2.62011 1.1933,-5.23466 2.1084,-7.7599 0,0 17.9258,-14.09613 17.9258,-14.09613 z"
       inkscape:connector-curvature="0"
       inkscape:export-xdpi="94.909103"
       inkscape:export-ydpi="94.909103" />
    <path
       style="fill:#2b0000;fill-opacity:1;stroke:#000000;stroke-width:0;stroke-miterlimit:4;stroke-dasharray:none;stroke-opacity:1"
       id="path4166"
       d="m 343.43123,689.55393 c 1.2287,1.03228 2.3659,2.1604 3.4625,3.33017 1.9239,2.12899 3.8356,4.26991 5.7024,6.44951 2.2471,2.57031 4.3704,5.24289 6.5189,7.89464 2.0686,2.54216 4.034,5.164 5.9691,7.80832 1.9652,2.67758 3.9805,5.31869 6.0221,7.93843 1.8361,2.29327 3.5407,4.67809 4.7794,7.34772 0.8972,2.06401 0.7303,4.0608 0,6.12474 -2.5892,5.27657 -8.2388,9.58315 -12.0386,13.3732 -1.9084,1.77348 -3.9754,3.3575 -6.0908,4.87331 -2.0225,1.6455 -4.2607,2.9748 -6.4903,4.31143 -2.3234,1.35492 -4.6825,2.64625 -7.0275,3.96292 -2.4434,1.40516 -4.9745,2.63645 -7.5031,3.87693 -2.5638,1.19264 -5.1488,2.34426 -7.7714,3.40203 -2.6665,1.11714 -5.3771,2.11252 -7.986,3.36239 -0.4334,0.20559 -0.8668,0.41117 -1.3002,0.61675 0,0 6.9526,-8.90685 6.9526,-8.90685 l 0,0 c 0.4349,-0.20395 0.8698,-0.40789 1.3048,-0.61184 2.6435,-1.18973 5.3575,-2.20615 8.0279,-3.33333 2.5978,-1.08657 5.178,-2.2211 7.7129,-3.44802 2.5229,-1.23485 5.0143,-2.52769 7.4564,-3.91702 2.3472,-1.30762 4.6938,-2.61688 7.0028,-3.99122 2.2145,-1.34242 4.3681,-2.77256 6.409,-4.37034 2.0772,-1.54917 4.1149,-3.1549 5.9662,-4.9738 -13.7912,13.83529 -5.8526,6.59986 -3.5289,2.8 0.8399,-1.78421 1.3443,-3.50834 0.6074,-5.44361 -1.1241,-2.63191 -2.7766,-4.94953 -4.5599,-7.1786 -2.0475,-2.62915 -4.0711,-5.27791 -6.0479,-7.96076 -1.9243,-2.62991 -3.8731,-5.24149 -5.9269,-7.77248 -2.1392,-2.64506 -4.25,-5.31369 -6.4987,-7.86814 -1.8618,-2.15937 -3.7689,-4.27958 -5.7024,-6.37469 -1.0746,-1.12879 -2.1853,-2.22389 -3.4138,-3.18699 0,0 7.9886,-8.1348 7.9886,-8.1348 z"
       inkscape:connector-curvature="0"
       inkscape:export-xdpi="94.909103"
       inkscape:export-ydpi="94.909103" />
    <path
       style="fill:#2b0000;fill-opacity:1;stroke:#000000;stroke-width:0;stroke-miterlimit:4;stroke-dasharray:none;stroke-opacity:1"
       id="path4168"
       d="m 503.81733,687.41419 c -6.66928,6.31881 9.03028,-9.30944 5.20248,-5.2513 -1.30875,1.31983 -2.37943,2.84362 -3.43686,4.36476 -1.29957,1.95464 -2.59982,3.90817 -3.93767,5.83695 -1.41666,2.06481 -2.92294,4.06087 -4.54206,5.97049 -1.74073,2.02426 -3.63605,3.90764 -5.48968,5.82707 -1.93962,2.01969 -3.84271,4.07407 -5.76276,6.11233 -3.90769,4.04179 -1.14793,1.20117 -10.01258,9.99937 -11.22577,11.1416 24.92355,-24.96551 -4.34305,4.3182 13.85744,-13.86999 4.87727,-4.98432 1.85547,-1.5738 -1.72249,1.85941 -2.90251,3.94168 -3.15609,6.47284 0.094,2.67703 1.57948,4.87107 3.14004,6.93365 2.12769,2.56309 4.68299,4.70434 7.28842,6.75863 3.21567,2.52477 6.68455,4.68941 10.24783,6.68227 3.6598,2.02313 7.4347,3.80973 11.28783,5.42919 3.76354,1.53756 7.59317,2.89836 11.41292,4.28643 3.5221,1.28857 7.09789,2.42152 10.66291,3.58368 1.68293,0.53294 3.37144,1.04465 5.05062,1.5894 0,0 -7.586,8.33931 -7.586,8.33931 l 0,0 c -1.67999,-0.54135 -3.36754,-1.05717 -5.04766,-1.59812 -3.57188,-1.17117 -7.15431,-2.31369 -10.6805,-3.61852 -3.83603,-1.39262 -7.67298,-2.7829 -11.44948,-4.33262 -3.88168,-1.65192 -7.68734,-3.46697 -11.37575,-5.51878 -3.60686,-2.03398 -7.12353,-4.23375 -10.3933,-6.78291 -2.68317,-2.1091 -5.30528,-4.31603 -7.50868,-6.93873 -1.7313,-2.24084 -3.3168,-4.61546 -3.6879,-7.49412 -0.035,-2.70562 0.8925,-5.04867 2.7005,-7.08426 4.292,-5.06802 9.37699,-9.3961 13.8764,-14.26864 -23.5919,23.61593 20.48897,-20.51719 -2.44028,2.52674 -0.34606,0.34779 0.69261,-0.69508 1.03891,-1.04262 1.92072,-2.03462 3.83034,-4.07959 5.74293,-6.12183 1.86855,-1.8947 3.72845,-3.80284 5.52411,-5.76643 1.646,-1.87401 3.1981,-3.81705 4.61482,-5.8719 1.3236,-1.9308 2.67881,-3.84049 3.92116,-5.82602 1.05343,-1.53305 2.07041,-3.10296 3.31102,-4.49471 3.50473,-3.61813 6.77158,-7.56894 10.85555,-10.53755 0,0 -6.88362,9.09155 -6.88362,9.09155 z"
       inkscape:connector-curvature="0"
       inkscape:export-xdpi="94.909103"
       inkscape:export-ydpi="94.909103" />
    <path
       style="fill:#2b0000;fill-opacity:1;stroke:#000000;stroke-width:0;stroke-miterlimit:4;stroke-dasharray:none;stroke-opacity:1"
       id="path4174"
       d="m 570.64566,432.68075 c 0.55095,1.18868 1.23172,2.3193 1.90867,3.4406 0.91036,1.52764 1.84465,3.04022 2.79117,4.54569 1.05656,1.68878 2.10719,3.38085 3.14986,5.07841 1.1362,1.77809 2.30528,3.53455 3.46443,5.29767 1.30864,1.87803 2.61815,3.75693 3.8578,5.68148 1.1468,1.88711 2.25915,3.76861 3.86858,5.29896 1.51867,1.37231 3.27684,1.24368 5.16005,0.90628 2.98045,-0.67348 5.83471,-1.82561 8.65973,-2.97197 3.39381,-1.42014 6.48739,-3.40561 9.53531,-5.44047 2.87969,-2.026 5.66797,-4.18509 8.33051,-6.48896 2.30536,-2.08092 4.53028,-4.24748 6.80393,-6.36223 1.98975,-1.96275 4.02984,-3.86685 6.13781,-5.70163 2.18122,-1.88281 4.47231,-3.6109 6.86633,-5.2118 2.02968,-1.42277 4.10922,-2.77336 6.18808,-4.12286 0,0 -6.82865,9.00167 -6.82865,9.00167 l 0,0 c -2.06683,1.35937 -4.14148,2.70747 -6.16519,4.13092 -2.35347,1.64177 -4.60759,3.41207 -6.76502,5.30546 -2.08665,1.84917 -4.08526,3.79123 -6.10259,5.71526 -2.25595,2.12994 -4.50071,4.27353 -6.83781,6.31511 -2.70997,2.25835 -5.50161,4.42524 -8.43027,6.39442 -3.09932,2.01797 -6.26873,3.9427 -9.7209,5.30738 -2.89777,1.14129 -5.82295,2.32435 -8.9093,2.84026 -2.21125,0.21472 -4.21916,-0.002 -5.92167,-1.58318 -1.66235,-1.60463 -2.87347,-3.51924 -4.04837,-5.49827 -1.22796,-1.92603 -2.53574,-3.80072 -3.84783,-5.67007 -1.1717,-1.76897 -2.34899,-3.53394 -3.49876,-5.31729 -1.03652,-1.69491 -2.08791,-3.37985 -3.14235,-5.06341 -0.95699,-1.50404 -1.89505,-3.01924 -2.81264,-4.54757 -0.71819,-1.15583 -1.39725,-2.33893 -2.05431,-3.52989 0,0 8.3634,-7.74997 8.3634,-7.74997 z"
       inkscape:connector-curvature="0"
       inkscape:export-xdpi="94.909103"
       inkscape:export-ydpi="94.909103" />
    <g
       sketch:type="MSPage"
       id="Page-1"
       style="fill:none;fill-rule:evenodd;stroke:none;stroke-width:1"
       transform="matrix(1.8296686,0,0,1.8296686,-2.0961722,212.60574)"
       inkscape:export-xdpi="94.909103"
       inkscape:export-ydpi="94.909103">
      <path
         sketch:type="MSShapeGroup"
         id="C◦mp◦se-::-Conferenc"
         d="m 27.2,35.56 c -1.360007,1.840009 -2.933324,3.159996 -4.72,3.96 -1.786676,0.800004 -3.71999,1.2 -5.8,1.2 -2.160011,0 -4.139991,-0.366663 -5.94,-1.1 C 8.939991,38.886663 7.4000064,37.860007 6.12,36.54 4.8399936,35.219993 3.8400036,33.646676 3.12,31.82 2.3999964,29.993324 2.04,28.000011 2.04,25.84 c 0,-2.160011 0.3599964,-4.146658 1.08,-5.96 0.7200036,-1.813342 1.7199936,-3.379993 3,-4.7 1.2800064,-1.320007 2.819991,-2.35333 4.62,-3.1 1.800009,-0.74667 3.779989,-1.12 5.94,-1.12 1.92001,0 3.713325,0.339997 5.38,1.02 1.666675,0.680003 3.12666,1.819992 4.38,3.42 l -2.16,1.8 c -0.880004,-1.33334 -2.00666,-2.306664 -3.38,-2.92 -1.37334,-0.613336 -2.779993,-0.92 -4.22,-0.92 -1.840009,0 -3.499993,0.319997 -4.98,0.96 -1.480007,0.640003 -2.7399948,1.519994 -3.78,2.64 -1.0400052,1.120006 -1.8399972,2.439992 -2.4,3.96 -0.5600028,1.520008 -0.84,3.159991 -0.84,4.92 0,1.760009 0.2799972,3.399992 0.84,4.92 0.5600028,1.520008 1.3599948,2.839994 2.4,3.96 1.0400052,1.120006 2.299993,1.999997 3.78,2.64 1.480007,0.640003 3.139991,0.96 4.98,0.96 0.720004,0 1.466663,-0.08667 2.24,-0.26 0.773337,-0.173334 1.526663,-0.439998 2.26,-0.8 0.733337,-0.360002 1.43333,-0.813331 2.1,-1.36 0.66667,-0.546669 1.253331,-1.206663 1.76,-1.98 l 2.16,1.64 z m 12.634913,0.826719 c -2.343762,0 -4.358715,-0.852856 -6.044922,-2.558594 -1.686206,-1.705738 -2.529297,-3.743478 -2.529297,-6.113281 0,-2.395846 0.846346,-4.440096 2.539063,-6.132813 1.692717,-1.692717 3.736967,-2.539062 6.132812,-2.539062 2.395846,0 4.440096,0.846345 6.132813,2.539062 1.692717,1.692717 2.539062,3.730457 2.539062,6.113281 0,2.434908 -0.8496,4.49218 -2.548828,6.171875 -1.699227,1.679696 -3.772774,2.519532 -6.220703,2.519532 l 0,0 z m 0.01953,-1.445313 c 2.031261,0 3.756504,-0.703118 5.175782,-2.109375 1.419278,-1.406257 2.128906,-3.118479 2.128906,-5.136719 0,-1.979176 -0.706373,-3.675123 -2.119141,-5.08789 -1.412767,-1.412768 -3.115224,-2.119141 -5.107422,-2.119141 -1.992197,0 -3.694654,0.706373 -5.107421,2.119141 -1.412768,1.412767 -2.119141,3.115224 -2.119141,5.107422 0,1.966155 0.703118,3.662102 2.109375,5.08789 1.406257,1.425789 3.085928,2.138672 5.039062,2.138672 l 0,0 z M 55.373889,26.72 c 0,-0.346668 -0.01333,-0.766664 -0.04,-1.26 -0.02667,-0.493336 -0.04667,-0.993331 -0.06,-1.5 -0.01333,-0.506669 -0.03333,-0.979998 -0.06,-1.42 -0.02667,-0.440002 -0.04,-0.779999 -0.04,-1.02 l 2.4,0 c 0.02667,0.693337 0.04667,1.359997 0.06,2 0.01333,0.640003 0.04667,1.053332 0.1,1.24 l 0.12,0 c 0.480002,-1.013338 1.279994,-1.886663 2.4,-2.62 1.120005,-0.733337 2.426659,-1.1 3.92,-1.1 1.226673,0 2.346661,0.31333 3.36,0.94 1.013338,0.62667 1.746664,1.64666 2.2,3.06 0.58667,-1.386674 1.459994,-2.399997 2.62,-3.04 1.160006,-0.640003 2.379994,-0.96 3.66,-0.96 1.440007,0 2.613329,0.226664 3.52,0.68 0.906671,0.453336 1.619997,1.046663 2.14,1.78 0.520003,0.733337 0.879999,1.579995 1.08,2.54 0.200001,0.960005 0.3,1.946662 0.3,2.96 l 0,11 -2.4,0 0,-10.88 c 0,-0.74667 -0.06667,-1.47333 -0.2,-2.18 -0.133334,-0.70667 -0.366665,-1.339997 -0.7,-1.9 -0.333335,-0.560003 -0.799997,-1.006665 -1.4,-1.34 -0.600003,-0.333335 -1.379995,-0.5 -2.34,-0.5 -1.120006,0 -2.039996,0.206665 -2.76,0.62 -0.720004,0.413335 -1.286665,0.939997 -1.7,1.58 -0.413336,0.640003 -0.706666,1.33333 -0.88,2.08 -0.173334,0.74667 -0.26,1.45333 -0.26,2.12 l 0,10.4 -2.4,0 0,-11.12 c 0,-1.706675 -0.31333,-3.079995 -0.94,-4.12 -0.62667,-1.040005 -1.593327,-1.56 -2.9,-1.56 -0.880005,0 -1.713329,0.153332 -2.5,0.46 -0.786671,0.306668 -1.466664,0.77333 -2.04,1.4 -0.573336,0.62667 -1.026665,1.413329 -1.36,2.36 -0.333335,0.946671 -0.5,2.059994 -0.5,3.34 l 0,9.24 -2.4,0 0,-13.28 z m 34.004444,-5.2 2.4,0 0,3.24 0.08,0 c 0.373335,-0.640003 0.839997,-1.193331 1.4,-1.66 0.560003,-0.466669 1.166664,-0.853332 1.82,-1.16 0.653337,-0.306668 1.339997,-0.533333 2.06,-0.68 0.720004,-0.146667 1.426664,-0.22 2.12,-0.22 1.413337,0 2.713327,0.239998 3.899997,0.72 1.18668,0.480002 2.21333,1.153329 3.08,2.02 0.86667,0.866671 1.54,1.893327 2.02,3.08 0.48001,1.186673 0.72,2.48666 0.72,3.9 0,1.41334 -0.23999,2.713327 -0.72,3.9 -0.48,1.186673 -1.15333,2.213329 -2.02,3.08 -0.86667,0.866671 -1.89332,1.539998 -3.08,2.02 -1.18667,0.480002 -2.48666,0.72 -3.899997,0.72 -0.693336,0 -1.399996,-0.07333 -2.12,-0.22 -0.720003,-0.146667 -1.406663,-0.373332 -2.06,-0.68 -0.653336,-0.306668 -1.259997,-0.693331 -1.82,-1.16 -0.560003,-0.466669 -1.026665,-1.019997 -1.4,-1.66 l -0.08,0 0,12.36 -2.4,0 0,-27.6 z m 2.16,9.24 c 0,1.040005 0.199998,2.019995 0.6,2.94 0.400002,0.920005 0.946664,1.719997 1.64,2.4 0.693337,0.680003 1.506662,1.219998 2.44,1.62 0.933338,0.400002 1.946662,0.6 3.04,0.6 1.120007,0 2.133327,-0.199998 3.039997,-0.6 0.90668,-0.400002 1.68,-0.939997 2.32,-1.62 0.64001,-0.680003 1.12667,-1.479995 1.46,-2.4 0.33334,-0.920005 0.5,-1.899995 0.5,-2.94 0,-1.040005 -0.16666,-2.019995 -0.5,-2.94 -0.33333,-0.920005 -0.81999,-1.719997 -1.46,-2.4 -0.64,-0.680003 -1.41332,-1.219998 -2.32,-1.62 -0.90667,-0.400002 -1.91999,-0.6 -3.039997,-0.6 -1.093338,0 -2.106662,0.199998 -3.04,0.6 -0.933338,0.400002 -1.746663,0.939997 -2.44,1.62 -0.693336,0.680003 -1.239998,1.479995 -1.64,2.4 -0.400002,0.920005 -0.6,1.899995 -0.6,2.94 l 0,0 z m 31.274917,5.626719 c -2.34376,0 -4.35872,-0.852856 -6.04492,-2.558594 -1.68621,-1.705738 -2.5293,-3.743478 -2.5293,-6.113281 0,-2.395846 0.84634,-4.440096 2.53906,-6.132813 1.69272,-1.692717 3.73697,-2.539062 6.13281,-2.539062 2.39585,0 4.4401,0.846345 6.13281,2.539062 1.69272,1.692717 2.53907,3.730457 2.53907,6.113281 0,2.434908 -0.8496,4.49218 -2.54883,6.171875 -1.69923,1.679696 -3.77278,2.519532 -6.2207,2.519532 l 0,0 z m 0.0195,-1.445313 c 2.03126,0 3.7565,-0.703118 5.17578,-2.109375 1.41928,-1.406257 2.1289,-3.118479 2.1289,-5.136719 0,-1.979176 -0.70637,-3.675123 -2.11914,-5.08789 -1.41276,-1.412768 -3.11522,-2.119141 -5.10742,-2.119141 -1.99219,0 -3.69465,0.706373 -5.10742,2.119141 -1.41277,1.412767 -2.11914,3.115224 -2.11914,5.107422 0,1.966155 0.70312,3.662102 2.10938,5.08789 1.40625,1.425789 3.08592,2.138672 5.03906,2.138672 l 0,0 z M 138.39222,35.28 c 0.50667,0.986672 1.25333,1.739997 2.24,2.26 0.98667,0.520003 2.02666,0.78 3.12,0.78 0.50667,0 1.01333,-0.08 1.52,-0.24 0.50667,-0.160001 0.96,-0.386665 1.36,-0.68 0.4,-0.293335 0.72667,-0.646665 0.98,-1.06 0.25334,-0.413335 0.38,-0.886664 0.38,-1.42 0,-0.853338 -0.27333,-1.493331 -0.82,-1.92 -0.54667,-0.426669 -1.21999,-0.759999 -2.02,-1 -0.8,-0.240001 -1.67999,-0.446666 -2.64,-0.62 -0.96,-0.173334 -1.83999,-0.439998 -2.64,-0.8 -0.8,-0.360002 -1.47333,-0.859997 -2.02,-1.5 -0.54667,-0.640003 -0.82,-1.546661 -0.82,-2.72 0,-0.906671 0.18667,-1.69333 0.56,-2.36 0.37334,-0.66667 0.86,-1.219998 1.46,-1.66 0.6,-0.440002 1.27333,-0.766666 2.02,-0.98 0.74667,-0.213334 1.50667,-0.32 2.28,-0.32 1.52001,0 2.83333,0.279997 3.94,0.84 1.10667,0.560003 1.96667,1.439994 2.58,2.64 l -2.16,1.28 c -0.45333,-0.853338 -1.01999,-1.499998 -1.7,-1.94 -0.68,-0.440002 -1.56666,-0.66 -2.66,-0.66 -0.42667,0 -0.87333,0.06667 -1.34,0.2 -0.46667,0.133334 -0.88666,0.319999 -1.26,0.56 -0.37333,0.240001 -0.68666,0.546665 -0.94,0.92 -0.25333,0.373335 -0.38,0.799998 -0.38,1.28 0,0.826671 0.27333,1.439998 0.82,1.84 0.54667,0.400002 1.22,0.713332 2.02,0.94 0.80001,0.226668 1.68,0.419999 2.64,0.58 0.96001,0.160001 1.84,0.419998 2.64,0.78 0.80001,0.360002 1.47333,0.879997 2.02,1.56 0.54667,0.680003 0.82,1.64666 0.82,2.9 0,0.960005 -0.18,1.79333 -0.54,2.5 -0.36,0.70667 -0.85333,1.299998 -1.48,1.78 -0.62667,0.480002 -1.33999,0.839999 -2.14,1.08 -0.8,0.240001 -1.63999,0.36 -2.52,0.36 -1.60001,0 -3.05999,-0.306664 -4.38,-0.92 -1.32,-0.613336 -2.33999,-1.559994 -3.06,-2.84 l 2.12,-1.44 z m 33.76445,1.24 c -0.93334,1.41334 -2.08666,2.426664 -3.46,3.04 -1.37334,0.613336 -2.88666,0.92 -4.54,0.92 -1.41334,0 -2.69333,-0.239998 -3.84,-0.72 -1.14668,-0.480002 -2.13333,-1.153329 -2.96,-2.02 -0.82667,-0.866671 -1.46,-1.893327 -1.9,-3.08 -0.44001,-1.186673 -0.66,-2.499993 -0.66,-3.94 0,-1.386674 0.22666,-2.666661 0.68,-3.84 0.45333,-1.173339 1.09333,-2.193329 1.92,-3.06 0.82667,-0.866671 1.79999,-1.546664 2.92,-2.04 1.12,-0.493336 2.35999,-0.74 3.72,-0.74 1.41334,0 2.65999,0.246664 3.74,0.74 1.08,0.493336 1.98666,1.146663 2.72,1.96 0.73333,0.813337 1.28666,1.739995 1.66,2.78 0.37333,1.040005 0.56,2.093328 0.56,3.16 l 0,1.68 -15.52,0 c 0,0.506669 0.1,1.153329 0.3,1.94 0.2,0.786671 0.56666,1.55333 1.1,2.3 0.53333,0.74667 1.24666,1.386664 2.14,1.92 0.89333,0.533336 2.04666,0.8 3.46,0.8 1.22667,0 2.41332,-0.29333 3.56,-0.88 1.14667,-0.58667 2.02666,-1.386662 2.64,-2.4 l 1.76,1.48 z m -1.84,-7.32 c 0,-0.826671 -0.16667,-1.599996 -0.5,-2.32 -0.33334,-0.720004 -0.78667,-1.353331 -1.36,-1.9 -0.57334,-0.546669 -1.25333,-0.979998 -2.04,-1.3 -0.78667,-0.320002 -1.62,-0.48 -2.5,-0.48 -1.30668,0 -2.39333,0.266664 -3.26,0.8 -0.86667,0.533336 -1.55333,1.146663 -2.06,1.84 -0.50667,0.693337 -0.86667,1.366663 -1.08,2.02 -0.21334,0.653337 -0.32,1.099999 -0.32,1.34 l 13.12,0 z m 19.12889,-6 c 0,-0.533336 0.18666,-0.986665 0.56,-1.36 0.37333,-0.373335 0.82666,-0.56 1.36,-0.56 0.53333,0 0.98666,0.186665 1.36,0.56 0.37333,0.373335 0.56,0.826664 0.56,1.36 0,0.533336 -0.18667,0.986665 -0.56,1.36 -0.37334,0.373335 -0.82667,0.56 -1.36,0.56 -0.53334,0 -0.98667,-0.186665 -1.36,-0.56 -0.37334,-0.373335 -0.56,-0.826664 -0.56,-1.36 l 0,0 z m 0,15.12 c 0,-0.533336 0.18666,-0.986665 0.56,-1.36 0.37333,-0.373335 0.82666,-0.56 1.36,-0.56 0.53333,0 0.98666,0.186665 1.36,0.56 0.37333,0.373335 0.56,0.826664 0.56,1.36 0,0.533336 -0.18667,0.986665 -0.56,1.36 -0.37334,0.373335 -0.82667,0.56 -1.36,0.56 -0.53334,0 -0.98667,-0.186665 -1.36,-0.56 -0.37334,-0.373335 -0.56,-0.826664 -0.56,-1.36 l 0,0 z M 200.29,23.2 c 0,-0.533336 0.18666,-0.986665 0.56,-1.36 0.37333,-0.373335 0.82666,-0.56 1.36,-0.56 0.53334,0 0.98666,0.186665 1.36,0.56 0.37333,0.373335 0.56,0.826664 0.56,1.36 0,0.533336 -0.18667,0.986665 -0.56,1.36 -0.37334,0.373335 -0.82666,0.56 -1.36,0.56 -0.53334,0 -0.98667,-0.186665 -1.36,-0.56 -0.37334,-0.373335 -0.56,-0.826664 -0.56,-1.36 l 0,0 z m 0,15.12 c 0,-0.533336 0.18666,-0.986665 0.56,-1.36 0.37333,-0.373335 0.82666,-0.56 1.36,-0.56 0.53334,0 0.98666,0.186665 1.36,0.56 0.37333,0.373335 0.56,0.826664 0.56,1.36 0,0.533336 -0.18667,0.986665 -0.56,1.36 -0.37334,0.373335 -0.82666,0.56 -1.36,0.56 -0.53334,0 -0.98667,-0.186665 -1.36,-0.56 -0.37334,-0.373335 -0.56,-0.826664 -0.56,-1.36 l 0,0 z m 45.60889,-2.76 c -1.36001,1.840009 -2.93333,3.159996 -4.72,3.96 -1.78668,0.800004 -3.71999,1.2 -5.8,1.2 -2.16001,0 -4.13999,-0.366663 -5.94,-1.1 -1.80001,-0.733337 -3.34,-1.759993 -4.62,-3.08 -1.28001,-1.320007 -2.28,-2.893324 -3,-4.72 -0.72001,-1.826676 -1.08,-3.819989 -1.08,-5.98 0,-2.160011 0.35999,-4.146658 1.08,-5.96 0.72,-1.813342 1.71999,-3.379993 3,-4.7 1.28,-1.320007 2.81999,-2.35333 4.62,-3.1 1.80001,-0.74667 3.77999,-1.12 5.94,-1.12 1.92001,0 3.71332,0.339997 5.38,1.02 1.66667,0.680003 3.12666,1.819992 4.38,3.42 l -2.16,1.8 c -0.88001,-1.33334 -2.00666,-2.306664 -3.38,-2.92 -1.37334,-0.613336 -2.77999,-0.92 -4.22,-0.92 -1.84001,0 -3.49999,0.319997 -4.98,0.96 -1.48001,0.640003 -2.74,1.519994 -3.78,2.64 -1.04001,1.120006 -1.84,2.439992 -2.4,3.96 -0.56,1.520008 -0.84,3.159991 -0.84,4.92 0,1.760009 0.28,3.399992 0.84,4.92 0.56,1.520008 1.35999,2.839994 2.4,3.96 1.04,1.120006 2.29999,1.999997 3.78,2.64 1.48001,0.640003 3.13999,0.96 4.98,0.96 0.72,0 1.46666,-0.08667 2.24,-0.26 0.77334,-0.173334 1.52666,-0.439998 2.26,-0.8 0.73334,-0.360002 1.43333,-0.813331 2.1,-1.36 0.66667,-0.546669 1.25333,-1.206663 1.76,-1.98 l 2.16,1.64 z m 3.56444,-4.8 c 0,-1.41334 0.24,-2.713327 0.72,-3.9 0.48001,-1.186673 1.14667,-2.213329 2,-3.08 0.85334,-0.866671 1.88,-1.539998 3.08,-2.02 1.20001,-0.480002 2.50666,-0.72 3.92,-0.72 1.41334,0 2.71333,0.239998 3.9,0.72 1.18668,0.480002 2.21333,1.153329 3.08,2.02 0.86667,0.866671 1.54,1.893327 2.02,3.08 0.48001,1.186673 0.72,2.48666 0.72,3.9 0,1.41334 -0.23999,2.713327 -0.72,3.9 -0.48,1.186673 -1.15333,2.213329 -2.02,3.08 -0.86667,0.866671 -1.89332,1.539998 -3.08,2.02 -1.18667,0.480002 -2.48666,0.72 -3.9,0.72 -1.41334,0 -2.71999,-0.239998 -3.92,-0.72 -1.2,-0.480002 -2.22666,-1.153329 -3.08,-2.02 -0.85333,-0.866671 -1.51999,-1.893327 -2,-3.08 -0.48,-1.186673 -0.72,-2.48666 -0.72,-3.9 l 0,0 z m 2.4,0 c 0,1.040005 0.16667,2.019995 0.5,2.94 0.33334,0.920005 0.82,1.719997 1.46,2.4 0.64001,0.680003 1.41333,1.219998 2.32,1.62 0.90667,0.400002 1.92,0.6 3.04,0.6 1.12001,0 2.13333,-0.199998 3.04,-0.6 0.90667,-0.400002 1.68,-0.939997 2.32,-1.62 0.64001,-0.680003 1.12667,-1.479995 1.46,-2.4 0.33334,-0.920005 0.5,-1.899995 0.5,-2.94 0,-1.040005 -0.16666,-2.019995 -0.5,-2.94 -0.33333,-0.920005 -0.81999,-1.719997 -1.46,-2.4 -0.64,-0.680003 -1.41333,-1.219998 -2.32,-1.62 -0.90667,-0.400002 -1.91999,-0.6 -3.04,-0.6 -1.12,0 -2.13333,0.199998 -3.04,0.6 -0.90667,0.400002 -1.67999,0.939997 -2.32,1.62 -0.64,0.680003 -1.12666,1.479995 -1.46,2.4 -0.33333,0.920005 -0.5,1.899995 -0.5,2.94 l 0,0 z m 22.84445,-4.04 c 0,-0.346668 -0.0133,-0.766664 -0.04,-1.26 -0.0267,-0.493336 -0.0467,-0.993331 -0.06,-1.5 -0.0133,-0.506669 -0.0333,-0.979998 -0.06,-1.42 -0.0267,-0.440002 -0.04,-0.779999 -0.04,-1.02 l 2.4,0 c 0.0267,0.693337 0.0467,1.359997 0.06,2 0.0133,0.640003 0.0467,1.053332 0.1,1.24 l 0.12,0 c 0.48,-1.013338 1.27999,-1.886663 2.4,-2.62 1.12,-0.733337 2.42666,-1.1 3.92,-1.1 1.44,0 2.61333,0.226664 3.52,0.68 0.90667,0.453336 1.62,1.046663 2.14,1.78 0.52,0.733337 0.88,1.579995 1.08,2.54 0.2,0.960005 0.3,1.946662 0.3,2.96 l 0,11 -2.4,0 0,-10.88 c 0,-0.74667 -0.0667,-1.47333 -0.2,-2.18 -0.13334,-0.70667 -0.36667,-1.339997 -0.7,-1.9 -0.33334,-0.560003 -0.8,-1.006665 -1.4,-1.34 -0.60001,-0.333335 -1.38,-0.5 -2.34,-0.5 -0.88001,0 -1.71333,0.153332 -2.5,0.46 -0.78667,0.306668 -1.46667,0.77333 -2.04,1.4 -0.57334,0.62667 -1.02667,1.413329 -1.36,2.36 -0.33334,0.946671 -0.5,2.059994 -0.5,3.34 l 0,9.24 -2.4,0 0,-13.28 z m 24.04444,-3.04 -3.84,0 0,-2.16 3.84,0 0,-6.04 c 0,-1.200006 0.18,-2.193329 0.54,-2.98 0.36,-0.786671 0.80667,-1.419998 1.34,-1.9 0.53334,-0.480002 1.12667,-0.819999 1.78,-1.02 0.65334,-0.200001 1.27333,-0.3 1.86,-0.3 1.12001,0 2.04,0.1599984 2.76,0.48 l -0.48,2.08 c -0.53333,-0.266668 -1.25333,-0.4 -2.16,-0.4 -2.16001,0 -3.24,1.639984 -3.24,4.92 l 0,5.16 4.32,0 0,2.16 -4.32,0 0,16.32 -2.4,0 0,-16.32 z m 27.24445,12.84 c -0.93334,1.41334 -2.08666,2.426664 -3.46,3.04 -1.37334,0.613336 -2.88666,0.92 -4.54,0.92 -1.41334,0 -2.69333,-0.239998 -3.84,-0.72 -1.14668,-0.480002 -2.13333,-1.153329 -2.96,-2.02 -0.82667,-0.866671 -1.46,-1.893327 -1.9,-3.08 -0.44,-1.186673 -0.66,-2.499993 -0.66,-3.94 0,-1.386674 0.22666,-2.666661 0.68,-3.84 0.45333,-1.173339 1.09333,-2.193329 1.92,-3.06 0.82667,-0.866671 1.79999,-1.546664 2.92,-2.04 1.12,-0.493336 2.35999,-0.74 3.72,-0.74 1.41334,0 2.65999,0.246664 3.74,0.74 1.08,0.493336 1.98666,1.146663 2.72,1.96 0.73333,0.813337 1.28666,1.739995 1.66,2.78 0.37333,1.040005 0.56,2.093328 0.56,3.16 l 0,1.68 -15.52,0 c 0,0.506669 0.1,1.153329 0.3,1.94 0.2,0.786671 0.56666,1.55333 1.1,2.3 0.53333,0.74667 1.24666,1.386664 2.14,1.92 0.89334,0.533336 2.04666,0.8 3.46,0.8 1.22667,0 2.41332,-0.29333 3.56,-0.88 1.14667,-0.58667 2.02666,-1.386662 2.64,-2.4 l 1.76,1.48 z m -1.84,-7.32 c 0,-0.826671 -0.16667,-1.599996 -0.5,-2.32 -0.33334,-0.720004 -0.78667,-1.353331 -1.36,-1.9 -0.57334,-0.546669 -1.25333,-0.979998 -2.04,-1.3 -0.78667,-0.320002 -1.62,-0.48 -2.5,-0.48 -1.30668,0 -2.39333,0.266664 -3.26,0.8 -0.86667,0.533336 -1.55333,1.146663 -2.06,1.84 -0.50667,0.693337 -0.86667,1.366663 -1.08,2.02 -0.21334,0.653337 -0.32,1.099999 -0.32,1.34 l 13.12,0 z m 8.20444,-2.48 c 0,-0.346668 -0.0133,-0.766664 -0.04,-1.26 -0.0267,-0.493336 -0.0467,-0.993331 -0.06,-1.5 -0.0133,-0.506669 -0.0333,-0.979998 -0.06,-1.42 -0.0267,-0.440002 -0.04,-0.779999 -0.04,-1.02 l 2.4,0 c 0.0267,0.693337 0.0467,1.359997 0.06,2 0.0133,0.640003 0.0467,1.053332 0.1,1.24 0.61334,-1.093339 1.4,-1.986663 2.36,-2.68 0.96001,-0.693337 2.13333,-1.04 3.52,-1.04 0.24,0 0.47333,0.02 0.7,0.06 0.22667,0.04 0.46,0.08667 0.7,0.14 l -0.28,2.36 c -0.32,-0.106667 -0.62666,-0.16 -0.92,-0.16 -1.04,0 -1.94,0.166665 -2.7,0.5 -0.76,0.333335 -1.38666,0.79333 -1.88,1.38 -0.49334,0.58667 -0.86,1.273329 -1.1,2.06 -0.24,0.786671 -0.36,1.633329 -0.36,2.54 l 0,10.08 -2.4,0 0,-13.28 z m 29.36445,9.8 c -0.93334,1.41334 -2.08666,2.426664 -3.46,3.04 -1.37334,0.613336 -2.88666,0.92 -4.54,0.92 -1.41335,0 -2.69333,-0.239998 -3.84,-0.72 -1.14668,-0.480002 -2.13333,-1.153329 -2.96,-2.02 -0.82668,-0.866671 -1.46,-1.893327 -1.9,-3.08 -0.44001,-1.186673 -0.66,-2.499993 -0.66,-3.94 0,-1.386674 0.22666,-2.666661 0.68,-3.84 0.45333,-1.173339 1.09333,-2.193329 1.92,-3.06 0.82667,-0.866671 1.79999,-1.546664 2.92,-2.04 1.12,-0.493336 2.35999,-0.74 3.72,-0.74 1.41334,0 2.65999,0.246664 3.74,0.74 1.08,0.493336 1.98666,1.146663 2.72,1.96 0.73333,0.813337 1.28666,1.739995 1.66,2.78 0.37333,1.040005 0.56,2.093328 0.56,3.16 l 0,1.68 -15.52,0 c 0,0.506669 0.1,1.153329 0.3,1.94 0.2,0.786671 0.56666,1.55333 1.1,2.3 0.53333,0.74667 1.24666,1.386664 2.14,1.92 0.89333,0.533336 2.04665,0.8 3.46,0.8 1.22667,0 2.41332,-0.29333 3.56,-0.88 1.14667,-0.58667 2.02666,-1.386662 2.64,-2.4 l 1.76,1.48 z m -1.84,-7.32 c 0,-0.826671 -0.16667,-1.599996 -0.5,-2.32 -0.33334,-0.720004 -0.78667,-1.353331 -1.36,-1.9 -0.57334,-0.546669 -1.25333,-0.979998 -2.04,-1.3 -0.78667,-0.320002 -1.62,-0.48 -2.5,-0.48 -1.30668,0 -2.39333,0.266664 -3.26,0.8 -0.86668,0.533336 -1.55333,1.146663 -2.06,1.84 -0.50667,0.693337 -0.86667,1.366663 -1.08,2.02 -0.21334,0.653337 -0.32,1.099999 -0.32,1.34 l 13.12,0 z M 368.09,26.72 c 0,-0.346668 -0.0133,-0.766664 -0.04,-1.26 -0.0267,-0.493336 -0.0467,-0.993331 -0.06,-1.5 -0.0133,-0.506669 -0.0333,-0.979998 -0.06,-1.42 -0.0267,-0.440002 -0.04,-0.779999 -0.04,-1.02 l 2.4,0 c 0.0267,0.693337 0.0467,1.359997 0.06,2 0.0133,0.640003 0.0467,1.053332 0.1,1.24 l 0.12,0 c 0.48,-1.013338 1.27999,-1.886663 2.4,-2.62 1.12001,-0.733337 2.42666,-1.1 3.92,-1.1 1.44001,0 2.61333,0.226664 3.52,0.68 0.90667,0.453336 1.62,1.046663 2.14,1.78 0.52,0.733337 0.88,1.579995 1.08,2.54 0.2,0.960005 0.3,1.946662 0.3,2.96 l 0,11 -2.4,0 0,-10.88 c 0,-0.74667 -0.0667,-1.47333 -0.2,-2.18 -0.13333,-0.70667 -0.36667,-1.339997 -0.7,-1.9 -0.33333,-0.560003 -0.8,-1.006665 -1.4,-1.34 -0.6,-0.333335 -1.38,-0.5 -2.34,-0.5 -0.88,0 -1.71333,0.153332 -2.5,0.46 -0.78667,0.306668 -1.46666,0.77333 -2.04,1.4 -0.57334,0.62667 -1.02667,1.413329 -1.36,2.36 -0.33334,0.946671 -0.5,2.059994 -0.5,3.34 l 0,9.24 -2.4,0 0,-13.28 z m 38.16444,10.56 c -0.90667,1.093339 -1.93332,1.899997 -3.08,2.42 -1.14667,0.520003 -2.38666,0.78 -3.71999,0.78 -1.41335,0 -2.72,-0.239998 -3.92001,-0.72 -1.2,-0.480002 -2.22666,-1.153329 -3.07999,-2.02 -0.85334,-0.866671 -1.52,-1.893327 -2,-3.08 -0.48001,-1.186673 -0.72001,-2.48666 -0.72001,-3.9 0,-1.41334 0.24,-2.713327 0.72001,-3.9 0.48,-1.186673 1.14666,-2.213329 2,-3.08 0.85333,-0.866671 1.87999,-1.539998 3.07999,-2.02 1.20001,-0.480002 2.50666,-0.72 3.92001,-0.72 1.36,0 2.61999,0.279997 3.77999,0.84 1.16001,0.560003 2.19333,1.346662 3.10001,2.36 l -1.92001,1.44 c -0.69333,-0.773337 -1.45333,-1.379998 -2.27999,-1.82 -0.82668,-0.440002 -1.72,-0.66 -2.68,-0.66 -1.12001,0 -2.13333,0.199998 -3.04001,0.6 -0.90667,0.400002 -1.67999,0.939997 -2.32,1.62 -0.64,0.680003 -1.12666,1.479995 -1.45999,2.4 -0.33334,0.920005 -0.5,1.899995 -0.5,2.94 0,1.040005 0.16666,2.019995 0.5,2.94 0.33333,0.920005 0.81999,1.719997 1.45999,2.4 0.64001,0.680003 1.41333,1.219998 2.32,1.62 0.90668,0.400002 1.92,0.6 3.04001,0.6 1.01333,0 1.93999,-0.233331 2.77999,-0.7 0.84001,-0.466669 1.56667,-1.086663 2.18,-1.86 l 1.84,1.52 z m 20.52445,-0.76 c -0.93334,1.41334 -2.08666,2.426664 -3.46,3.04 -1.37334,0.613336 -2.88666,0.92 -4.54,0.92 -1.41334,0 -2.69333,-0.239998 -3.84,-0.72 -1.14667,-0.480002 -2.13333,-1.153329 -2.96,-2.02 -0.82667,-0.866671 -1.46,-1.893327 -1.9,-3.08 -0.44,-1.186673 -0.66,-2.499993 -0.66,-3.94 0,-1.386674 0.22666,-2.666661 0.68,-3.84 0.45334,-1.173339 1.09333,-2.193329 1.92,-3.06 0.82667,-0.866671 1.79999,-1.546664 2.92,-2.04 1.12,-0.493336 2.35999,-0.74 3.72,-0.74 1.41334,0 2.65999,0.246664 3.74,0.74 1.08,0.493336 1.98666,1.146663 2.72,1.96 0.73334,0.813337 1.28666,1.739995 1.66,2.78 0.37333,1.040005 0.56,2.093328 0.56,3.16 l 0,1.68 -15.52,0 c 0,0.506669 0.1,1.153329 0.3,1.94 0.2,0.786671 0.56666,1.55333 1.1,2.3 0.53333,0.74667 1.24666,1.386664 2.14,1.92 0.89334,0.533336 2.04666,0.8 3.46,0.8 1.22667,0 2.41333,-0.29333 3.56,-0.88 1.14667,-0.58667 2.02666,-1.386662 2.64,-2.4 l 1.76,1.48 z m -1.84,-7.32 c 0,-0.826671 -0.16667,-1.599996 -0.5,-2.32 -0.33334,-0.720004 -0.78667,-1.353331 -1.36,-1.9 -0.57334,-0.546669 -1.25333,-0.979998 -2.04,-1.3 -0.78667,-0.320002 -1.62,-0.48 -2.5,-0.48 -1.30667,0 -2.39333,0.266664 -3.26,0.8 -0.86667,0.533336 -1.55333,1.146663 -2.06,1.84 -0.50667,0.693337 -0.86667,1.366663 -1.08,2.02 -0.21334,0.653337 -0.32,1.099999 -0.32,1.34 l 13.12,0 z"
         inkscape:connector-curvature="0"
         style="fill:#000000" />
    </g>
    <path
       style="fill:#000000;fill-opacity:1;stroke:#000000;stroke-width:0.5;stroke-miterlimit:4;stroke-dasharray:none;stroke-dashoffset:0;stroke-opacity:1"
       id="path4442"
       d="m 609.30434,569.67518 c -0.42091,3.42161 -0.6283,6.86525 -0.84142,10.3047 -0.36341,4.48547 -0.87913,8.95686 -1.3015,13.43715 -0.5131,5.01356 -1.23191,10.00094 -2.11725,14.9614 -1.14305,5.17028 -2.36894,10.32804 -3.79452,15.4284 -1.51296,5.30538 -3.16305,10.56826 -4.89401,15.80601 -1.66342,5.28423 -3.50244,10.50884 -5.68019,15.60317 -2.38716,5.10243 -4.94208,10.12658 -7.57508,15.10612 -2.69544,5.11184 -6.02132,9.83368 -9.55671,14.38967 -3.4512,4.35556 -7.20867,8.44496 -11.03576,12.4685 -8.85056,9.70239 -17.58375,19.35688 -28.86676,26.0267 -5.06643,2.91129 -10.43858,5.21757 -15.87253,7.33968 -5.30019,2.15084 -10.81762,3.57809 -16.39064,4.80104 -5.456,1.13246 -11.01576,1.78659 -16.57306,2.16062 -5.34033,0.33307 -10.68241,0.44912 -16.0305,0.33916 -2.69538,-0.0665 -5.39048,-0.1438 -8.08568,-0.21854 0,0 14.73387,-17.15566 14.73387,-17.15566 l 0,0 c 2.68917,0.0729 5.37827,0.14978 8.06799,0.19994 5.29457,0.0617 10.58675,-0.11083 15.8698,-0.47261 5.4754,-0.46904 10.95104,-1.12758 16.31204,-2.36515 5.48794,-1.28346 10.89507,-2.85356 16.10944,-5.01786 5.34636,-2.18252 10.63395,-4.54645 15.56223,-7.57941 2.37826,-1.5353 4.69236,-3.09502 6.8515,-4.93457 0.68819,-0.58633 2.64449,-2.46494 2.01178,-1.81913 -3.95788,4.0399 -19.94162,20.00901 -11.97437,12.02018 3.88716,-3.95399 7.6477,-8.02498 11.18488,-12.29705 3.58585,-4.46167 7.02276,-9.04893 9.79802,-14.07196 2.6753,-4.92731 5.16874,-9.94881 7.66769,-14.96723 2.30851,-4.99792 4.17923,-10.17795 5.8231,-15.43068 1.7252,-5.22034 3.44399,-10.44181 4.93806,-15.73453 1.514,-5.03189 2.63999,-10.16291 3.93157,-15.25489 0.95508,-4.89533 1.64784,-9.82874 2.22997,-14.78171 0.39963,-4.45938 0.86012,-8.91235 1.33119,-13.36468 0.19175,-3.44062 0.39706,-6.88061 0.67121,-10.3158 0,0 17.49564,-14.61098 17.49564,-14.61098 z"
       inkscape:connector-curvature="0"
       inkscape:export-xdpi="94.909103"
       inkscape:export-ydpi="94.909103" />
    <path
       style="fill:#000000;fill-opacity:1;stroke:#000000;stroke-width:0.5;stroke-miterlimit:4;stroke-dasharray:none;stroke-dashoffset:0;stroke-opacity:1"
       id="path4448"
       d="m 442.48893,805.90301 c -1.9985,0.3119 -3.9461,0.8835 -5.8734,1.4842 -4.2367,1.322 -8.1509,3.3678 -11.8667,5.7628 0.9118,-1.4176 -5.1577,4.51676 -3.9944,3.25356 1.1466,-1.2451 2.2856,-2.52216 3.6299,-3.55056 0.719,-0.55 -1.1881,1.3684 -1.7276,2.0954 -1.4933,2.01216 -1.6336,2.50096 -2.7833,4.71946 -2.4958,5.421 -2.5483,10.7412 -1.7134,16.5231 1.1973,6.5219 4.333,11.0305 8.8728,15.6762 4.4299,4.165 9.7514,6.8391 15.6165,8.2563 4.8112,0.8605 8.0154,0.3343 11.8968,-2.6158 0.4648,-0.4796 1.8999,-1.8749 1.3942,-1.4387 -1.457,1.2565 -2.6316,2.8661 -4.252,3.9033 -0.5991,0.3835 0.7487,-1.213 1.0532,-1.8558 1.006,-2.1238 1.3833,-4.337 1.735,-6.6349 0.6268,-5.0066 -0.4418,-9.8148 -2.2377,-14.4563 -1.9583,-4.5244 -5.3124,-8.0813 -8.9523,-11.3018 -3.1742,-2.7071 -6.7553,-4.8248 -10.4854,-6.6584 -2.1614,-1.0238 -4.423,-1.803 -6.6985,-2.5258 0,0 5.3339,-5.86396 5.3339,-5.86396 l 0,0 c 2.3006,0.755 4.5878,1.5624 6.77,2.6211 3.7764,1.88966 7.402,4.06226 10.6139,6.82736 3.716,3.3141 7.1458,6.9701 9.1967,11.5799 1.8819,4.7226 3.0432,9.6294 2.5119,14.7528 -1.0723,8.3797 -3.5562,11.2934 -10.7344,17.3657 -4.1185,2.7356 -7.5381,3.1205 -12.3864,2.1394 -5.9544,-1.5637 -11.3711,-4.3423 -15.8871,-8.5943 -4.6462,-4.7362 -7.9272,-9.3637 -9.2309,-16.0095 -0.9349,-5.9761 -1.01,-11.1943 1.3979,-16.8848 0.4038,-0.8364 0.7623,-1.6962 1.2115,-2.509 3.405,-6.1617 9.0142,-10.93396 14.6075,-15.06766 3.7981,-2.3609 7.7876,-4.3785 12.0788,-5.6928 1.9911,-0.603 3.9971,-1.2012 6.0619,-1.4951 0,0 -5.1589,6.1946 -5.1589,6.1946 z"
       inkscape:connector-curvature="0"
       inkscape:export-xdpi="94.909103"
       inkscape:export-ydpi="94.909103" />
    <path
       style="fill:#000000;fill-opacity:1;stroke:#000000;stroke-width:0;stroke-miterlimit:4;stroke-dasharray:none;stroke-opacity:1"
       id="path4160-3"
       d="m 588.03668,494.13477 c -2.6173,1.07865 -4.8341,2.84512 -6.8615,4.78368 -5.9515,6.50935 0.5696,-0.6612 13.5721,-13.41303 0.4087,-0.4008 -0.7507,0.86481 -1.1059,1.31374 -1.1161,1.411 -2.0434,2.91882 -2.9565,4.46447 -1.939,3.35052 -3.2609,6.96501 -4.1953,10.7073 -0.9882,3.97144 -1.1067,8.02454 -0.9372,12.0886 0.2277,4.41215 1.5622,8.58456 3.2663,12.62076 1.747,4.18735 4.7793,7.43262 8.119,10.39785 3.7044,3.00793 8.0905,4.58221 12.7111,5.48669 4.3633,0.55175 8.6112,-0.21391 12.7039,-1.69429 3.56192,-1.3954 6.47841,-3.78304 9.11507,-6.4918 -27.62227,27.53947 -13.15337,15.23472 -9.49727,6.82741 1.3074,-3.40247 1.1577,-7.0281 0.7677,-10.5839 -0.6235,-4.00008 -2.0164,-7.8093 -3.6348,-11.50029 -1.7469,-4.28859 -4.7983,-7.64929 -8.0328,-10.8596 -3.8058,-3.58387 -8.344,-6.19549 -12.968,-8.56072 -4.7129,-2.39203 -9.7675,-3.97411 -14.9266,-5.05106 -5.1699,-1.02896 -10.3512,-0.25971 -15.4039,0.97494 -2.8888,0.74105 -5.6652,1.81336 -8.4309,2.91164 0,0 14.0364,-17.69583 14.0364,-17.69583 l 0,0 c 2.8557,-1.03509 5.7185,-2.06032 8.6929,-2.7125 5.3579,-1.06084 10.7851,-1.63772 16.1732,-0.35904 5.3018,1.24521 10.4966,2.94141 15.344,5.45956 4.8084,2.50506 9.5128,5.27798 13.48328,9.01745 3.42972,3.39091 6.69108,6.95158 8.62936,11.44369 1.76283,3.84612 3.25661,7.81402 4.08691,11.97657 0.58541,3.78262 0.88849,7.67366 -0.0391,11.43088 -3.51978,10.85268 -14.17334,17.91622 -21.66605,25.60007 -2.932,2.56321 -6.1474,4.72434 -9.9171,5.86003 -4.4433,1.23489 -9.0035,1.76724 -13.5833,0.9048 -4.9305,-1.16438 -9.6153,-3.01131 -13.5648,-6.27853 -3.5669,-3.18481 -6.8467,-6.66463 -8.8082,-11.10057 -1.8698,-4.21626 -3.3918,-8.57618 -3.7983,-13.20658 -0.3216,-4.19798 -0.3676,-8.41141 0.5163,-12.55358 0.7536,-3.90274 1.9253,-7.6822 3.7793,-11.21566 5.1307,-9.85076 13.3949,-17.28452 21.9456,-24.48819 2.2906,-1.81132 4.7472,-3.36804 7.4812,-4.43072 0,0 -14.0961,17.92576 -14.0961,17.92576 z"
       inkscape:connector-curvature="0"
       inkscape:export-xdpi="94.909103"
       inkscape:export-ydpi="94.909103" />
    <path
       style="fill:#000000;fill-opacity:1;stroke:#000000;stroke-width:0;stroke-miterlimit:4;stroke-dasharray:none;stroke-opacity:1"
       id="path4160-3-6"
       d="m 84.980728,572.92668 c -2.6173,1.07865 -4.8341,2.84512 -6.8615,4.78368 -5.9515,6.50935 0.5696,-0.6612 13.5721,-13.41303 0.4087,-0.4008 -0.7507,0.86481 -1.1059,1.31374 -1.1161,1.411 -2.0434,2.91882 -2.9565,4.46447 -1.939,3.35052 -3.2609,6.96501 -4.1953,10.7073 -0.9882,3.97144 -1.1067,8.02454 -0.9372,12.0886 0.2277,4.41215 1.5622,8.58456 3.2663,12.62076 1.747,4.18735 4.7793,7.43262 8.119,10.39785 3.7044,3.00793 8.090502,4.58221 12.711102,5.48669 4.3633,0.55175 8.6112,-0.21391 12.7039,-1.69429 3.5619,-1.3954 6.4784,-3.78304 9.1151,-6.4918 -27.6223,27.53947 -13.1534,15.23472 -9.4973,6.82741 1.3074,-3.40247 1.1577,-7.0281 0.7677,-10.5839 -0.6235,-4.00008 -2.0164,-7.8093 -3.6348,-11.50029 -1.7469,-4.28859 -4.7983,-7.64929 -8.0328,-10.8596 -3.8058,-3.58387 -8.344002,-6.19549 -12.968002,-8.56072 -4.7129,-2.39203 -9.7675,-3.97411 -14.9266,-5.05106 -5.1699,-1.02896 -10.3512,-0.25971 -15.4039,0.97494 -2.8888,0.74105 -5.6652,1.81336 -8.4309,2.91164 0,0 14.0364,-17.69583 14.0364,-17.69583 l 0,0 c 2.8557,-1.03509 5.7185,-2.06032 8.6929,-2.7125 5.3579,-1.06084 10.7851,-1.63772 16.1732,-0.35904 5.301802,1.24521 10.496602,2.94141 15.344002,5.45956 4.8084,2.50506 9.5128,5.27798 13.4833,9.01745 3.4297,3.39091 6.6911,6.95158 8.6293,11.44369 1.7629,3.84612 3.2566,7.81402 4.0869,11.97657 0.5855,3.78262 0.8885,7.67366 -0.039,11.43088 -3.5197,10.85268 -14.1733,17.91622 -21.666,25.60007 -2.932,2.56321 -6.1474,4.72434 -9.9171,5.86003 -4.4433,1.23489 -9.003502,1.76724 -13.583302,0.9048 -4.9305,-1.16438 -9.6153,-3.01131 -13.5648,-6.27853 -3.5669,-3.18481 -6.8467,-6.66463 -8.8082,-11.10057 -1.8698,-4.21626 -3.3918,-8.57618 -3.7983,-13.20658 -0.3216,-4.19798 -0.3676,-8.41141 0.5163,-12.55358 0.7536,-3.90274 1.9253,-7.6822 3.7793,-11.21566 5.1307,-9.85076 13.3949,-17.28452 21.9456,-24.48819 2.2906,-1.81132 4.7472,-3.36804 7.4812,-4.43072 0,0 -14.0961,17.92576 -14.0961,17.92576 z"
       inkscape:connector-curvature="0"
       inkscape:export-xdpi="94.909103"
       inkscape:export-ydpi="94.909103" />
    <text
       xml:space="preserve"
       style="font-style:normal;font-weight:normal;font-size:40px;line-height:125%;font-family:sans-serif;letter-spacing:0px;word-spacing:0px;fill:#000000;fill-opacity:1;stroke:none;stroke-width:1px;stroke-linecap:butt;stroke-linejoin:miter;stroke-opacity:1"
       x="250.32741"
       y="608.97125"
       id="text4480"
       sodipodi:linespacing="125%"
       inkscape:export-xdpi="94.909103"
       inkscape:export-ydpi="94.909103"><tspan
         sodipodi:role="line"
         id="tspan4482"
         x="250.32741"
         y="608.97125"
         style="font-style:normal;font-variant:normal;font-weight:normal;font-stretch:normal;font-family:'Noto Sans Mono CJK SC';-inkscape-font-specification:'Noto Sans Mono CJK SC'">Melbourne</tspan></text>
    <path
       style="fill:none;fill-rule:evenodd;stroke:#000000;stroke-width:3.17117476;stroke-linecap:butt;stroke-linejoin:miter;stroke-miterlimit:4;stroke-dasharray:6.34234953, 19.02704859;stroke-dashoffset:0;stroke-opacity:0.50697674"
       d="m 388.73303,761.59181 c -9.7468,13.38791 -14.48329,30.33707 -13.08912,46.83836 1.39418,16.50128 8.90726,32.41549 20.76212,43.9783 3.28612,3.20517 6.89019,6.0842 10.7421,8.5811"
       id="path4565"
       inkscape:path-effect="#path-effect4567"
       inkscape:original-d="m 388.73303,761.59181 c -0.058,25.07812 -6.6305,70.82106 7.673,90.81666 3.065,4.28471 9.4407,5.85222 10.7421,8.5811"
       inkscape:connector-curvature="0"
       inkscape:export-xdpi="94.909103"
       inkscape:export-ydpi="94.909103" />
    <path
       style="fill:none;fill-rule:evenodd;stroke:#000000;stroke-width:3.64047527;stroke-linecap:butt;stroke-linejoin:miter;stroke-miterlimit:4;stroke-dasharray:7.28095055, 21.84285164;stroke-dashoffset:0;stroke-opacity:0.50697674"
       d="m 454.84903,750.21705 c 1.94592,4.4957 4.34496,8.79513 7.149,12.81201 2.94635,4.22075 6.36042,8.16714 8.57874,12.812 2.57417,5.38997 3.40488,11.49243 3.14,17.45967 -0.26487,5.96724 -1.58434,11.8378 -3.14,17.60478 -2.16087,8.01057 -4.78806,15.89533 -7.86384,23.60106"
       id="path4589"
       inkscape:path-effect="#path-effect4591"
       inkscape:original-d="m 454.84903,750.21705 c 4.089,3.48047 4.3395,8.57204 7.149,12.81201 2.7369,4.13059 6.9509,8.20578 8.57874,12.812 2.76916,7.83591 1.49311,26.61436 0,35.06445 -1.43614,8.12758 -7.86384,13.15618 -7.86384,23.60106"
       inkscape:connector-curvature="0"
       inkscape:export-xdpi="94.909103"
       inkscape:export-ydpi="94.909103" />
    <path
       style="fill:#999999;fill-opacity:1;stroke:none;stroke-width:0.84672892;stroke-miterlimit:4;stroke-dasharray:1.69345784, 5.08037353;stroke-dashoffset:0;stroke-opacity:1"
       id="path4605"
       d="m 448.60213,756.67868 c 0,-2.18556 -0.043,-4.36511 0.4201,-6.51119 0.4608,-1.39558 1.1377,-2.71335 2.2149,-3.72575 3.5413,-2.33139 5.6756,-1.12969 7.8945,0.74143 1.2477,1.12136 2.6269,2.09215 4.0721,2.94095 1.4115,0.6118 2.612,1.58979 3.9469,2.34147 0.5299,0.31719 0.8931,0.65301 1.1344,1.20997 0,0 -5.6775,0.27296 -5.6775,0.27296 l 0,0 c -0.2732,-0.3961 -0.6636,-0.64955 -1.0741,-0.89587 -1.3063,-0.79319 -2.5532,-1.68632 -3.9335,-2.35236 -1.4407,-0.90546 -2.824,-1.89815 -4.1123,-3.01198 -0.1205,-0.0926 -0.6174,-0.48314 -0.7741,-0.57314 -0.2031,-0.11661 -0.9156,-0.1626 -0.6816,-0.17 5.6007,-0.1771 6.9431,-0.58142 4.8452,-0.007 -1.1277,0.80769 -1.7271,2.09337 -2.2244,3.35634 -0.5149,2.09243 -0.4487,4.24246 -0.3977,6.38368 0,0 -5.6529,0 -5.6529,0 z"
       inkscape:connector-curvature="0"
       inkscape:export-xdpi="94.909103"
       inkscape:export-ydpi="94.909103" />
    <path
       style="fill:#999999;fill-opacity:1;stroke:none;stroke-width:0.84672892;stroke-miterlimit:4;stroke-dasharray:1.69345784, 5.08037353;stroke-dashoffset:0;stroke-opacity:1"
       id="path4607"
       d="m 410.13833,849.40509 c 0.6661,2.15273 1.3176,4.32771 2.1848,6.40939 0.6067,1.36009 1.0818,2.7885 1.0586,4.28878 -0.079,1.37107 -0.7286,2.37715 -2.0433,2.78557 -3.5208,0.81192 -6.8648,-0.16967 -10.2872,-0.5698 -2.048,-0.20525 -4.1088,-0.21438 -6.165,-0.23171 -1.5356,-0.006 -0.778,-0.004 -2.2729,-0.006 0,0 5.5462,-0.877 5.5462,-0.877 l 0,0 c 1.4891,0.005 0.7337,0.002 2.2663,0.0116 2.0689,0.0231 4.1437,0.0432 6.2005,0.29304 0.8492,0.11776 1.6873,0.27077 2.5326,0.41172 0.2672,0.0446 1.0737,0.11063 0.8031,0.12368 -1.1469,0.0553 -6.9563,0.0817 -4.2323,0.0684 1.3501,-0.10868 1.8571,-0.6505 1.9914,-2.02275 0.049,-1.42052 -0.4894,-2.7658 -1.0218,-4.06058 -0.8217,-2.12998 -1.4953,-4.31782 -2.2102,-6.48548 0,0 5.6492,-0.13842 5.6492,-0.13842 z"
       inkscape:connector-curvature="0"
       inkscape:export-xdpi="94.909103"
       inkscape:export-ydpi="94.909103" />
  </g>
</svg>
